<?xml version="1.0" encoding="utf-8"?>
<!-- Generator: Adobe Illustrator 21.0.0, SVG Export Plug-In . SVG Version: 6.00 Build 0)  -->
<svg version="1.1" id="Camada_1" xmlns="http://www.w3.org/2000/svg" xmlns:xlink="http://www.w3.org/1999/xlink" x="0px" y="0px"
	 viewBox="0 0 800 300" style="enable-background:new 0 0 800 300;" xml:space="preserve">
<style type="text/css">
	.st0{fill:#292C87;}
	.st1{fill:url(#SVGID_1_);}
</style>
<g>
	<g>
		<path d="M306.3,128.3v59.3h-16.4v-6.8c-4.3,5.1-10.4,7.7-18.5,7.7c-5.6,0-10.6-1.2-15.2-3.8c-4.5-2.5-8.1-6.1-10.6-10.7
			c-2.6-4.6-3.9-10-3.9-16.1c0-6.1,1.3-11.5,3.9-16.1s6.1-8.2,10.6-10.7c4.5-2.5,9.6-3.7,15.2-3.7c7.6,0,13.5,2.4,17.8,7.2v-6.3
			H306.3z M285.1,169.9c2.9-3,4.3-7,4.3-12c0-5-1.4-9-4.3-12c-2.9-3-6.5-4.5-10.8-4.5c-4.4,0-8,1.5-10.9,4.5c-2.9,3-4.3,7-4.3,12
			c0,5,1.4,9,4.3,12c2.9,3,6.5,4.5,10.9,4.5C278.6,174.4,282.2,172.9,285.1,169.9z"/>
		<path d="M594.7,184.6c-5-2.6-9-6.2-11.8-10.9c-2.8-4.6-4.2-9.9-4.2-15.8c0-5.9,1.4-11.1,4.2-15.8c2.8-4.6,6.8-8.2,11.8-10.9
			c5-2.6,10.7-3.9,17-3.9c6.2,0,11.7,1.3,16.4,3.9c4.7,2.6,8.1,6.3,10.2,11.2l-13.3,7.2c-3.1-5.4-7.5-8.2-13.3-8.2
			c-4.5,0-8.2,1.5-11.1,4.4c-2.9,2.9-4.4,6.9-4.4,12s1.5,9.1,4.4,12c2.9,2.9,6.7,4.4,11.1,4.4c5.9,0,10.3-2.7,13.3-8.2l13.3,7.3
			c-2.1,4.7-5.5,8.4-10.2,11c-4.7,2.6-10.1,4-16.4,4C605.4,188.5,599.8,187.2,594.7,184.6z"/>
		<path d="M700.6,184.6c-5-2.6-8.8-6.2-11.6-10.9c-2.8-4.6-4.2-9.9-4.2-15.8c0-5.9,1.4-11.1,4.2-15.8c2.8-4.6,6.7-8.2,11.6-10.9
			c5-2.6,10.6-3.9,16.8-3.9c6.2,0,11.8,1.3,16.8,3.9c4.9,2.6,8.8,6.2,11.6,10.9c2.8,4.6,4.2,9.9,4.2,15.8c0,5.9-1.4,11.1-4.2,15.8
			c-2.8,4.6-6.7,8.3-11.6,10.9c-4.9,2.6-10.5,3.9-16.8,3.9C711.2,188.5,705.6,187.2,700.6,184.6z M728.3,169.9c2.8-3,4.2-7,4.2-12
			c0-5-1.4-9-4.2-12c-2.8-3-6.5-4.5-10.9-4.5s-8,1.5-10.9,4.5c-2.9,3-4.3,7-4.3,12c0,5,1.4,9,4.3,12c2.9,3,6.5,4.5,10.9,4.5
			S725.4,172.9,728.3,169.9z"/>
		<path d="M376.3,184.6c-5-2.6-8.8-6.2-11.6-10.9c-2.8-4.6-4.2-9.9-4.2-15.8c0-5.9,1.4-11.1,4.2-15.8c2.8-4.6,6.7-8.2,11.6-10.9
			c5-2.6,10.6-3.9,16.8-3.9c6.2,0,11.8,1.3,16.8,3.9c4.9,2.6,8.8,6.2,11.6,10.9c2.8,4.6,4.2,9.9,4.2,15.8c0,5.9-1.4,11.1-4.2,15.8
			c-2.8,4.6-6.7,8.3-11.6,10.9c-4.9,2.6-10.5,3.9-16.8,3.9C386.8,188.5,381.2,187.2,376.3,184.6z M403.9,169.9c2.8-3,4.2-7,4.2-12
			c0-5-1.4-9-4.2-12c-2.8-3-6.5-4.5-10.9-4.5c-4.4,0-8,1.5-10.9,4.5c-2.9,3-4.3,7-4.3,12c0,5,1.4,9,4.3,12c2.9,3,6.5,4.5,10.9,4.5
			C397.5,174.4,401.1,172.9,403.9,169.9z"/>
		<path d="M532.1,134c-4.4-4.4-10.3-6.6-17.7-6.6c-4.4,0-8.5,0.8-12.2,2.5c-3.7,1.7-6.8,4.1-9.2,7.2c-2.1-3.2-4.8-5.6-8.2-7.2
			c-3.4-1.7-7.2-2.5-11.4-2.5c-3.8,0-7.3,0.7-10.5,2c-3.1,1.3-5.8,3.2-8,5.6c-0.9-5.2-2.9-9.3-5.9-12.3c-4.4-4.4-10.3-6.6-17.7-6.6
			c-4.4,0-8.5,0.8-12.2,2.5c-1,0.4-1.9,0.9-2.7,1.5c0.3,0.2,0.7,0.3,1,0.5c3.5,2,6.6,4.4,9.2,7.1c1.1,0.3,2.2,0.7,3.3,1.3
			c2.5,1.4,4.5,3.2,6,5.6c0.9,1.4,1.4,3,1.8,4.7c0.4,1.4,0.6,3,0.7,4.8c0,0.2,0,0.4,0,0.6v42.9h17.2v-11.1h0v-19.1
			c0.1-4.9,1.2-8.6,3.5-11.2c2.4-2.6,5.5-3.9,9.5-3.9c7.5,0,11.3,4.7,11.3,14v31.3h17.2v-29.8c0-5.1,1.2-9,3.5-11.6
			c2.4-2.6,5.5-3.9,9.6-3.9c3.6,0,6.4,1.2,8.3,3.5c1.9,2.3,2.9,5.8,2.9,10.5v31.3h17.2v-34C538.7,144.9,536.5,138.3,532.1,134z"/>
		<path d="M348,174.3c-0.9,0.2-1.8,0.4-2.8,0.4c-2.4,0-4.2-0.7-5.4-2c-0.5-0.5-0.8-1.2-1-1.8c-0.5-1.1-0.8-2.4-0.8-4v-24.1h0.8h8.9
			c0.9-3,2.2-5.8,3.7-8.5c0.4-0.7,0.9-1.3,1.3-1.9v-2.8H338l0,0c-0.9-3.7-2.5-6.8-4.9-9.1c-3-2.9-7.2-4.5-12.3-5.1v17.3v28.1v6.4
			c0,7,1.9,12.3,5.7,15.9c3,2.9,7.2,4.5,12.3,5.1c1.3,0.1,2.7,0.3,4.1,0.3c2.6,0,5.2-0.3,7.7-0.9c1.4-0.3,2.6-0.8,3.7-1.3
			c-1-1.4-2-2.9-2.9-4.4C350,179.3,348.9,176.9,348,174.3z"/>
		<path d="M673.7,174.3c-0.9,0.2-1.8,0.4-2.8,0.4c-2.4,0-4.2-0.7-5.4-2c-0.5-0.5-0.8-1.2-1-1.8c-0.5-1.1-0.8-2.4-0.8-4v-24.1h0.8
			h8.9c0.9-3,2.2-5.8,3.7-8.5c0.4-0.7,0.9-1.3,1.3-1.9v-2.8h-14.6l0,0c-0.9-3.7-2.5-6.8-4.9-9.1c-3-2.9-7.2-4.5-12.3-5.1v17.3v28.1
			v6.4c0,7,1.9,12.3,5.7,15.9c3,2.9,7.2,4.5,12.3,5.1c1.3,0.1,2.7,0.3,4.1,0.3c2.6,0,5.2-0.3,7.7-0.9c1.4-0.3,2.6-0.8,3.7-1.3
			c-1-1.4-2-2.9-2.9-4.4C675.6,179.3,674.6,176.9,673.7,174.3z"/>
	</g>
	<g>
		<path class="st0" d="M152,137.4c-2.6-1.4-4.8-3.2-6.5-5.4l0,0l-79.9,50.3l-0.1,0.1c0,0-1.5,1-1.9,1.8c-0.5,0.8-0.7,1.6-0.7,2.6
			c0,1,0.2,1.9,0.7,2.6c0.1,0.2,0.4,0.5,0.4,0.5c4.4,5.3,9.7,9.8,15.9,13.3c9.4,5.2,20,7.8,31.8,7.8c11.8,0,22.4-2.6,31.7-7.8
			c9.3-5.2,16.6-12.5,21.9-21.7c5.3-9.3,7.9-19.8,7.9-31.5c0-4-0.3-7.9-1-11.6c-2.7,1.1-5.7,1.6-9,1.6
			C159.1,140,155.3,139.1,152,137.4z"/>
		<path class="st0" d="M144.3,109.1c1.8-2.9,4.2-5.2,7.2-6.9c-2.5-2-5.1-3.9-8-5.5c-9.3-5.2-19.9-7.8-31.7-7.8
			c-11.8,0-22.4,2.6-31.8,7.8c-9.4,5.2-16.7,12.5-22,21.7c-5.3,9.3-7.9,19.8-7.9,31.5c0,4.7,1.3,13.4,1.3,13.4s0.5,2.5,1,4.1
			c0,0.1,0.3,0.9,0.4,1.1c0,0,0.1,0.2,0.1,0.2c0.5,0.8,1.1,1.4,1.9,1.8c0.8,0.4,1.8,0.7,2.8,0.7c1,0,2-0.2,2.8-0.7l83.4-41.4l0,0
			c-1.5-2.9-2.3-6-2.3-9.6C141.5,115.7,142.4,112.2,144.3,109.1z"/>
		<linearGradient id="SVGID_1_" gradientUnits="userSpaceOnUse" x1="141.4704" y1="119.6528" x2="184.9103" y2="119.6528">
			<stop  offset="0" style="stop-color:#2DA39B"/>
			<stop  offset="1" style="stop-color:#292C87"/>
		</linearGradient>
		<path class="st1" d="M182.1,109.1c-1.9-3.1-4.4-5.5-7.7-7.2c-3.3-1.7-7-2.6-11.2-2.6s-7.9,0.9-11.2,2.6c-3.3,1.7-5.9,4.2-7.8,7.2
			c-1.9,3.1-2.8,6.6-2.8,10.5c0,3.9,0.9,7.4,2.8,10.5c1.9,3.1,4.4,5.5,7.8,7.2c3.3,1.7,7,2.6,11.2,2.6s7.9-0.9,11.2-2.6
			c3.3-1.7,5.9-4.2,7.7-7.2c1.9-3.1,2.8-6.6,2.8-10.5C184.9,115.7,184,112.2,182.1,109.1z"/>
	</g>
</g>
</svg>
